{
  "vintage synth bass": [
    {
      "time": "2880i",
      "midiNote": 51,
      "noteName": "D#3",
      "velocity": 0.905511811023622,
      "duration": "13i"
    },
    {
      "time": "2916i",
      "midiNote": 51,
      "noteName": "D#3",
      "velocity": 0.8818897637795275,
      "duration": "14i"
    },
    {
      "time": "2952i",
      "midiNote": 51,
      "noteName": "D#3",
      "velocity": 0.937007874015748,
      "duration": "14i"
    },
    {
      "time": "2988i",
      "midiNote": 47,
      "noteName": "B2",
      "velocity": 0.889763779527559,
      "duration": "14i"
    },
    {
      "time": "3024i",
      "midiNote": 47,
      "noteName": "B2",
      "velocity": 0.9448818897637795,
      "duration": "13i"
    },
    {
      "time": "3048i",
      "midiNote": 47,
      "noteName": "B2",
      "velocity": 0.9291338582677166,
      "duration": "14i"
    },
    {
      "time": "3072i",
      "midiNote": 42,
      "noteName": "F#2",
      "velocity": 0.905511811023622,
      "duration": "13i"
    },
    {
      "time": "3108i",
      "midiNote": 42,
      "noteName": "F#2",
      "velocity": 0.8818897637795275,
      "duration": "14i"
    },
    {
      "time": "3144i",
      "midiNote": 42,
      "noteName": "F#2",
      "velocity": 0.937007874015748,
      "duration": "14i"
    },
    {
      "time": "3180i",
      "midiNote": 44,
      "noteName": "G#2",
      "velocity": 0.889763779527559,
      "duration": "14i"
    },
    {
      "time": "3216i",
      "midiNote": 44,
      "noteName": "G#2",
      "velocity": 0.9448818897637795,
      "duration": "13i"
    },
    {
      "time": "3240i",
      "midiNote": 44,
      "noteName": "G#2",
      "velocity": 0.9291338582677166,
      "duration": "14i"
    },
    {
      "time": "3264i",
      "midiNote": 51,
      "noteName": "D#3",
      "velocity": 0.905511811023622,
      "duration": "13i"
    },
    {
      "time": "3300i",
      "midiNote": 51,
      "noteName": "D#3",
      "velocity": 0.8818897637795275,
      "duration": "14i"
    },
    {
      "time": "3336i",
      "midiNote": 51,
      "noteName": "D#3",
      "velocity": 0.937007874015748,
      "duration": "14i"
    },
    {
      "time": "3372i",
      "midiNote": 47,
      "noteName": "B2",
      "velocity": 0.889763779527559,
      "duration": "14i"
    },
    {
      "time": "3408i",
      "midiNote": 47,
      "noteName": "B2",
      "velocity": 0.9448818897637795,
      "duration": "13i"
    },
    {
      "time": "3432i",
      "midiNote": 47,
      "noteName": "B2",
      "velocity": 0.9291338582677166,
      "duration": "14i"
    },
    {
      "time": "3456i",
      "midiNote": 42,
      "noteName": "F#2",
      "velocity": 0.905511811023622,
      "duration": "13i"
    },
    {
      "time": "3492i",
      "midiNote": 42,
      "noteName": "F#2",
      "velocity": 0.8818897637795275,
      "duration": "14i"
    },
    {
      "time": "3528i",
      "midiNote": 42,
      "noteName": "F#2",
      "velocity": 0.937007874015748,
      "duration": "14i"
    },
    {
      "time": "3564i",
      "midiNote": 44,
      "noteName": "G#2",
      "velocity": 0.889763779527559,
      "duration": "14i"
    },
    {
      "time": "3600i",
      "midiNote": 44,
      "noteName": "G#2",
      "velocity": 0.9448818897637795,
      "duration": "14i"
    },
    {
      "time": "3624i",
      "midiNote": 44,
      "noteName": "G#2",
      "velocity": 0.9291338582677166,
      "duration": "14i"
    },
    {
      "time": "3648i",
      "midiNote": 51,
      "noteName": "D#3",
      "velocity": 0.905511811023622,
      "duration": "13i"
    },
    {
      "time": "3684i",
      "midiNote": 51,
      "noteName": "D#3",
      "velocity": 0.8818897637795275,
      "duration": "14i"
    },
    {
      "time": "3720i",
      "midiNote": 51,
      "noteName": "D#3",
      "velocity": 0.937007874015748,
      "duration": "14i"
    },
    {
      "time": "3756i",
      "midiNote": 47,
      "noteName": "B2",
      "velocity": 0.889763779527559,
      "duration": "14i"
    },
    {
      "time": "3792i",
      "midiNote": 47,
      "noteName": "B2",
      "velocity": 0.9448818897637795,
      "duration": "14i"
    },
    {
      "time": "3816i",
      "midiNote": 47,
      "noteName": "B2",
      "velocity": 0.9291338582677166,
      "duration": "14i"
    },
    {
      "time": "3840i",
      "midiNote": 42,
      "noteName": "F#2",
      "velocity": 0.905511811023622,
      "duration": "13i"
    },
    {
      "time": "3876i",
      "midiNote": 42,
      "noteName": "F#2",
      "velocity": 0.8818897637795275,
      "duration": "14i"
    },
    {
      "time": "3912i",
      "midiNote": 42,
      "noteName": "F#2",
      "velocity": 0.937007874015748,
      "duration": "14i"
    },
    {
      "time": "3948i",
      "midiNote": 44,
      "noteName": "G#2",
      "velocity": 0.889763779527559,
      "duration": "14i"
    },
    {
      "time": "3984i",
      "midiNote": 44,
      "noteName": "G#2",
      "velocity": 0.9448818897637795,
      "duration": "13i"
    },
    {
      "time": "4008i",
      "midiNote": 44,
      "noteName": "G#2",
      "velocity": 0.9291338582677166,
      "duration": "14i"
    },
    {
      "time": "4032i",
      "midiNote": 51,
      "noteName": "D#3",
      "velocity": 0.905511811023622,
      "duration": "13i"
    },
    {
      "time": "4068i",
      "midiNote": 51,
      "noteName": "D#3",
      "velocity": 0.8818897637795275,
      "duration": "14i"
    },
    {
      "time": "4104i",
      "midiNote": 51,
      "noteName": "D#3",
      "velocity": 0.937007874015748,
      "duration": "14i"
    },
    {
      "time": "4140i",
      "midiNote": 47,
      "noteName": "B2",
      "velocity": 0.889763779527559,
      "duration": "14i"
    },
    {
      "time": "4176i",
      "midiNote": 47,
      "noteName": "B2",
      "velocity": 0.9448818897637795,
      "duration": "13i"
    },
    {
      "time": "4200i",
      "midiNote": 47,
      "noteName": "B2",
      "velocity": 0.9291338582677166,
      "duration": "14i"
    },
    {
      "time": "4224i",
      "midiNote": 42,
      "noteName": "F#2",
      "velocity": 0.905511811023622,
      "duration": "13i"
    },
    {
      "time": "4260i",
      "midiNote": 42,
      "noteName": "F#2",
      "velocity": 0.8818897637795275,
      "duration": "14i"
    },
    {
      "time": "4296i",
      "midiNote": 42,
      "noteName": "F#2",
      "velocity": 0.937007874015748,
      "duration": "14i"
    },
    {
      "time": "4332i",
      "midiNote": 44,
      "noteName": "G#2",
      "velocity": 0.889763779527559,
      "duration": "14i"
    },
    {
      "time": "4368i",
      "midiNote": 44,
      "noteName": "G#2",
      "velocity": 0.9448818897637795,
      "duration": "13i"
    },
    {
      "time": "4392i",
      "midiNote": 44,
      "noteName": "G#2",
      "velocity": 0.9291338582677166,
      "duration": "14i"
    },
    {
      "time": "4416i",
      "midiNote": 51,
      "noteName": "D#3",
      "velocity": 0.905511811023622,
      "duration": "13i"
    },
    {
      "time": "4452i",
      "midiNote": 51,
      "noteName": "D#3",
      "velocity": 0.8818897637795275,
      "duration": "14i"
    },
    {
      "time": "4488i",
      "midiNote": 51,
      "noteName": "D#3",
      "velocity": 0.937007874015748,
      "duration": "14i"
    },
    {
      "time": "4524i",
      "midiNote": 47,
      "noteName": "B2",
      "velocity": 0.889763779527559,
      "duration": "14i"
    },
    {
      "time": "4560i",
      "midiNote": 47,
      "noteName": "B2",
      "velocity": 0.9448818897637795,
      "duration": "13i"
    },
    {
      "time": "4584i",
      "midiNote": 47,
      "noteName": "B2",
      "velocity": 0.9291338582677166,
      "duration": "14i"
    },
    {
      "time": "4608i",
      "midiNote": 42,
      "noteName": "F#2",
      "velocity": 0.905511811023622,
      "duration": "13i"
    },
    {
      "time": "4644i",
      "midiNote": 42,
      "noteName": "F#2",
      "velocity": 0.8818897637795275,
      "duration": "14i"
    },
    {
      "time": "4680i",
      "midiNote": 42,
      "noteName": "F#2",
      "velocity": 0.937007874015748,
      "duration": "14i"
    },
    {
      "time": "4716i",
      "midiNote": 44,
      "noteName": "G#2",
      "velocity": 0.889763779527559,
      "duration": "14i"
    },
    {
      "time": "4752i",
      "midiNote": 44,
      "noteName": "G#2",
      "velocity": 0.9448818897637795,
      "duration": "13i"
    },
    {
      "time": "4776i",
      "midiNote": 44,
      "noteName": "G#2",
      "velocity": 0.9291338582677166,
      "duration": "14i"
    },
    {
      "time": "4800i",
      "midiNote": 51,
      "noteName": "D#3",
      "velocity": 0.905511811023622,
      "duration": "13i"
    },
    {
      "time": "4836i",
      "midiNote": 51,
      "noteName": "D#3",
      "velocity": 0.8818897637795275,
      "duration": "14i"
    },
    {
      "time": "4872i",
      "midiNote": 51,
      "noteName": "D#3",
      "velocity": 0.937007874015748,
      "duration": "14i"
    },
    {
      "time": "4908i",
      "midiNote": 47,
      "noteName": "B2",
      "velocity": 0.889763779527559,
      "duration": "14i"
    },
    {
      "time": "4944i",
      "midiNote": 47,
      "noteName": "B2",
      "velocity": 0.9448818897637795,
      "duration": "14i"
    },
    {
      "time": "4968i",
      "midiNote": 47,
      "noteName": "B2",
      "velocity": 0.9291338582677166,
      "duration": "14i"
    },
    {
      "time": "4992i",
      "midiNote": 42,
      "noteName": "F#2",
      "velocity": 0.905511811023622,
      "duration": "13i"
    },
    {
      "time": "5028i",
      "midiNote": 42,
      "noteName": "F#2",
      "velocity": 0.8818897637795275,
      "duration": "14i"
    },
    {
      "time": "5064i",
      "midiNote": 42,
      "noteName": "F#2",
      "velocity": 0.937007874015748,
      "duration": "14i"
    },
    {
      "time": "5100i",
      "midiNote": 44,
      "noteName": "G#2",
      "velocity": 0.889763779527559,
      "duration": "14i"
    },
    {
      "time": "5136i",
      "midiNote": 44,
      "noteName": "G#2",
      "velocity": 0.9448818897637795,
      "duration": "13i"
    },
    {
      "time": "5160i",
      "midiNote": 44,
      "noteName": "G#2",
      "velocity": 0.9291338582677166,
      "duration": "14i"
    },
    {
      "time": "5184i",
      "midiNote": 51,
      "noteName": "D#3",
      "velocity": 0.905511811023622,
      "duration": "13i"
    },
    {
      "time": "5220i",
      "midiNote": 51,
      "noteName": "D#3",
      "velocity": 0.8818897637795275,
      "duration": "14i"
    },
    {
      "time": "5256i",
      "midiNote": 51,
      "noteName": "D#3",
      "velocity": 0.937007874015748,
      "duration": "14i"
    },
    {
      "time": "5292i",
      "midiNote": 47,
      "noteName": "B2",
      "velocity": 0.889763779527559,
      "duration": "14i"
    },
    {
      "time": "5328i",
      "midiNote": 47,
      "noteName": "B2",
      "velocity": 0.9448818897637795,
      "duration": "13i"
    },
    {
      "time": "5352i",
      "midiNote": 47,
      "noteName": "B2",
      "velocity": 0.9291338582677166,
      "duration": "14i"
    },
    {
      "time": "5376i",
      "midiNote": 42,
      "noteName": "F#2",
      "velocity": 0.905511811023622,
      "duration": "13i"
    },
    {
      "time": "5412i",
      "midiNote": 42,
      "noteName": "F#2",
      "velocity": 0.8818897637795275,
      "duration": "14i"
    },
    {
      "time": "5448i",
      "midiNote": 42,
      "noteName": "F#2",
      "velocity": 0.937007874015748,
      "duration": "14i"
    },
    {
      "time": "5484i",
      "midiNote": 44,
      "noteName": "G#2",
      "velocity": 0.889763779527559,
      "duration": "14i"
    },
    {
      "time": "5520i",
      "midiNote": 44,
      "noteName": "G#2",
      "velocity": 0.9448818897637795,
      "duration": "14i"
    },
    {
      "time": "5544i",
      "midiNote": 44,
      "noteName": "G#2",
      "velocity": 0.9291338582677166,
      "duration": "14i"
    },
    {
      "time": "5568i",
      "midiNote": 51,
      "noteName": "D#3",
      "velocity": 0.905511811023622,
      "duration": "13i"
    },
    {
      "time": "5604i",
      "midiNote": 51,
      "noteName": "D#3",
      "velocity": 0.8818897637795275,
      "duration": "14i"
    },
    {
      "time": "5640i",
      "midiNote": 51,
      "noteName": "D#3",
      "velocity": 0.937007874015748,
      "duration": "14i"
    },
    {
      "time": "5676i",
      "midiNote": 47,
      "noteName": "B2",
      "velocity": 0.889763779527559,
      "duration": "14i"
    },
    {
      "time": "5712i",
      "midiNote": 47,
      "noteName": "B2",
      "velocity": 0.9448818897637795,
      "duration": "13i"
    },
    {
      "time": "5736i",
      "midiNote": 47,
      "noteName": "B2",
      "velocity": 0.9291338582677166,
      "duration": "14i"
    },
    {
      "time": "5760i",
      "midiNote": 42,
      "noteName": "F#2",
      "velocity": 0.905511811023622,
      "duration": "13i"
    },
    {
      "time": "5796i",
      "midiNote": 42,
      "noteName": "F#2",
      "velocity": 0.8818897637795275,
      "duration": "14i"
    },
    {
      "time": "5832i",
      "midiNote": 42,
      "noteName": "F#2",
      "velocity": 0.937007874015748,
      "duration": "14i"
    },
    {
      "time": "5868i",
      "midiNote": 44,
      "noteName": "G#2",
      "velocity": 0.889763779527559,
      "duration": "14i"
    },
    {
      "time": "5904i",
      "midiNote": 44,
      "noteName": "G#2",
      "velocity": 0.9448818897637795,
      "duration": "13i"
    },
    {
      "time": "5928i",
      "midiNote": 44,
      "noteName": "G#2",
      "velocity": 0.9291338582677166,
      "duration": "14i"
    },
    {
      "time": "5952i",
      "midiNote": 51,
      "noteName": "D#3",
      "velocity": 0.905511811023622,
      "duration": "13i"
    },
    {
      "time": "5988i",
      "midiNote": 51,
      "noteName": "D#3",
      "velocity": 0.8818897637795275,
      "duration": "14i"
    },
    {
      "time": "6024i",
      "midiNote": 51,
      "noteName": "D#3",
      "velocity": 0.937007874015748,
      "duration": "14i"
    },
    {
      "time": "6048i",
      "midiNote": 51,
      "noteName": "D#3",
      "velocity": 0.905511811023622,
      "duration": "13i"
    },
    {
      "time": "6084i",
      "midiNote": 51,
      "noteName": "D#3",
      "velocity": 0.8818897637795275,
      "duration": "14i"
    },
    {
      "time": "6120i",
      "midiNote": 51,
      "noteName": "D#3",
      "velocity": 0.937007874015748,
      "duration": "14i"
    },
    {
      "time": "6144i",
      "midiNote": 51,
      "noteName": "D#3",
      "velocity": 0.905511811023622,
      "duration": "13i"
    },
    {
      "time": "6180i",
      "midiNote": 51,
      "noteName": "D#3",
      "velocity": 0.8818897637795275,
      "duration": "14i"
    },
    {
      "time": "6216i",
      "midiNote": 51,
      "noteName": "D#3",
      "velocity": 0.937007874015748,
      "duration": "14i"
    },
    {
      "time": "6240i",
      "midiNote": 51,
      "noteName": "D#3",
      "velocity": 0.905511811023622,
      "duration": "13i"
    },
    {
      "time": "6276i",
      "midiNote": 51,
      "noteName": "D#3",
      "velocity": 0.8818897637795275,
      "duration": "14i"
    },
    {
      "time": "6312i",
      "midiNote": 51,
      "noteName": "D#3",
      "velocity": 0.937007874015748,
      "duration": "14i"
    },
    {
      "time": "6336i",
      "midiNote": 51,
      "noteName": "D#3",
      "velocity": 0.905511811023622,
      "duration": "13i"
    },
    {
      "time": "6372i",
      "midiNote": 51,
      "noteName": "D#3",
      "velocity": 0.8818897637795275,
      "duration": "14i"
    },
    {
      "time": "6408i",
      "midiNote": 51,
      "noteName": "D#3",
      "velocity": 0.937007874015748,
      "duration": "14i"
    },
    {
      "time": "6432i",
      "midiNote": 51,
      "noteName": "D#3",
      "velocity": 0.905511811023622,
      "duration": "13i"
    },
    {
      "time": "6468i",
      "midiNote": 51,
      "noteName": "D#3",
      "velocity": 0.8818897637795275,
      "duration": "14i"
    },
    {
      "time": "6504i",
      "midiNote": 51,
      "noteName": "D#3",
      "velocity": 0.937007874015748,
      "duration": "14i"
    },
    {
      "time": "6528i",
      "midiNote": 51,
      "noteName": "D#3",
      "velocity": 0.905511811023622,
      "duration": "13i"
    },
    {
      "time": "6564i",
      "midiNote": 51,
      "noteName": "D#3",
      "velocity": 0.8818897637795275,
      "duration": "14i"
    },
    {
      "time": "6600i",
      "midiNote": 51,
      "noteName": "D#3",
      "velocity": 0.937007874015748,
      "duration": "14i"
    },
    {
      "time": "6624i",
      "midiNote": 51,
      "noteName": "D#3",
      "velocity": 0.905511811023622,
      "duration": "13i"
    },
    {
      "time": "6660i",
      "midiNote": 51,
      "noteName": "D#3",
      "velocity": 0.8818897637795275,
      "duration": "14i"
    },
    {
      "time": "6696i",
      "midiNote": 51,
      "noteName": "D#3",
      "velocity": 0.937007874015748,
      "duration": "14i"
    },
    {
      "time": "6720i",
      "midiNote": 51,
      "noteName": "D#3",
      "velocity": 0.905511811023622,
      "duration": "13i"
    },
    {
      "time": "6756i",
      "midiNote": 51,
      "noteName": "D#3",
      "velocity": 0.8818897637795275,
      "duration": "14i"
    },
    {
      "time": "6792i",
      "midiNote": 51,
      "noteName": "D#3",
      "velocity": 0.937007874015748,
      "duration": "14i"
    },
    {
      "time": "6816i",
      "midiNote": 51,
      "noteName": "D#3",
      "velocity": 0.905511811023622,
      "duration": "13i"
    },
    {
      "time": "6852i",
      "midiNote": 51,
      "noteName": "D#3",
      "velocity": 0.8818897637795275,
      "duration": "14i"
    },
    {
      "time": "6888i",
      "midiNote": 51,
      "noteName": "D#3",
      "velocity": 0.937007874015748,
      "duration": "14i"
    },
    {
      "time": "6912i",
      "midiNote": 51,
      "noteName": "D#3",
      "velocity": 0.905511811023622,
      "duration": "13i"
    },
    {
      "time": "6948i",
      "midiNote": 51,
      "noteName": "D#3",
      "velocity": 0.8818897637795275,
      "duration": "14i"
    },
    {
      "time": "6984i",
      "midiNote": 51,
      "noteName": "D#3",
      "velocity": 0.937007874015748,
      "duration": "14i"
    },
    {
      "time": "7008i",
      "midiNote": 51,
      "noteName": "D#3",
      "velocity": 0.905511811023622,
      "duration": "13i"
    },
    {
      "time": "7044i",
      "midiNote": 51,
      "noteName": "D#3",
      "velocity": 0.8818897637795275,
      "duration": "14i"
    },
    {
      "time": "7080i",
      "midiNote": 51,
      "noteName": "D#3",
      "velocity": 0.937007874015748,
      "duration": "14i"
    },
    {
      "time": "7104i",
      "midiNote": 51,
      "noteName": "D#3",
      "velocity": 0.905511811023622,
      "duration": "13i"
    },
    {
      "time": "7140i",
      "midiNote": 51,
      "noteName": "D#3",
      "velocity": 0.8818897637795275,
      "duration": "14i"
    },
    {
      "time": "7176i",
      "midiNote": 51,
      "noteName": "D#3",
      "velocity": 0.937007874015748,
      "duration": "14i"
    },
    {
      "time": "7200i",
      "midiNote": 51,
      "noteName": "D#3",
      "velocity": 0.905511811023622,
      "duration": "13i"
    },
    {
      "time": "7236i",
      "midiNote": 51,
      "noteName": "D#3",
      "velocity": 0.8818897637795275,
      "duration": "14i"
    },
    {
      "time": "7272i",
      "midiNote": 51,
      "noteName": "D#3",
      "velocity": 0.937007874015748,
      "duration": "14i"
    },
    {
      "time": "7296i",
      "midiNote": 51,
      "noteName": "D#3",
      "velocity": 0.905511811023622,
      "duration": "13i"
    },
    {
      "time": "7320i",
      "midiNote": 51,
      "noteName": "D#3",
      "velocity": 0.8818897637795275,
      "duration": "14i"
    },
    {
      "time": "7344i",
      "midiNote": 51,
      "noteName": "D#3",
      "velocity": 0.937007874015748,
      "duration": "14i"
    },
    {
      "time": "7368i",
      "midiNote": 51,
      "noteName": "D#3",
      "velocity": 0.937007874015748,
      "duration": "14i"
    },
    {
      "time": "7392i",
      "midiNote": 51,
      "noteName": "D#3",
      "velocity": 0.905511811023622,
      "duration": "13i"
    },
    {
      "time": "7416i",
      "midiNote": 51,
      "noteName": "D#3",
      "velocity": 0.8818897637795275,
      "duration": "14i"
    },
    {
      "time": "7440i",
      "midiNote": 51,
      "noteName": "D#3",
      "velocity": 0.937007874015748,
      "duration": "14i"
    },
    {
      "time": "7488i",
      "midiNote": 39,
      "noteName": "D#2",
      "velocity": 0.905511811023622,
      "duration": "13i"
    },
    {
      "time": "7524i",
      "midiNote": 39,
      "noteName": "D#2",
      "velocity": 0.8818897637795275,
      "duration": "14i"
    },
    {
      "time": "7560i",
      "midiNote": 39,
      "noteName": "D#2",
      "velocity": 0.937007874015748,
      "duration": "14i"
    },
    {
      "time": "7596i",
      "midiNote": 35,
      "noteName": "B1",
      "velocity": 0.889763779527559,
      "duration": "14i"
    },
    {
      "time": "7632i",
      "midiNote": 35,
      "noteName": "B1",
      "velocity": 0.9448818897637795,
      "duration": "14i"
    },
    {
      "time": "7656i",
      "midiNote": 35,
      "noteName": "B1",
      "velocity": 0.9291338582677166,
      "duration": "14i"
    },
    {
      "time": "7680i",
      "midiNote": 30,
      "noteName": "F#1",
      "velocity": 0.905511811023622,
      "duration": "13i"
    },
    {
      "time": "7716i",
      "midiNote": 30,
      "noteName": "F#1",
      "velocity": 0.8818897637795275,
      "duration": "14i"
    },
    {
      "time": "7752i",
      "midiNote": 30,
      "noteName": "F#1",
      "velocity": 0.937007874015748,
      "duration": "14i"
    },
    {
      "time": "7788i",
      "midiNote": 32,
      "noteName": "G#1",
      "velocity": 0.889763779527559,
      "duration": "14i"
    },
    {
      "time": "7824i",
      "midiNote": 32,
      "noteName": "G#1",
      "velocity": 0.9448818897637795,
      "duration": "13i"
    },
    {
      "time": "7848i",
      "midiNote": 32,
      "noteName": "G#1",
      "velocity": 0.9291338582677166,
      "duration": "14i"
    },
    {
      "time": "7872i",
      "midiNote": 39,
      "noteName": "D#2",
      "velocity": 0.905511811023622,
      "duration": "13i"
    },
    {
      "time": "7908i",
      "midiNote": 39,
      "noteName": "D#2",
      "velocity": 0.8818897637795275,
      "duration": "14i"
    },
    {
      "time": "7944i",
      "midiNote": 39,
      "noteName": "D#2",
      "velocity": 0.937007874015748,
      "duration": "14i"
    },
    {
      "time": "7980i",
      "midiNote": 35,
      "noteName": "B1",
      "velocity": 0.889763779527559,
      "duration": "14i"
    },
    {
      "time": "8016i",
      "midiNote": 35,
      "noteName": "B1",
      "velocity": 0.9448818897637795,
      "duration": "13i"
    },
    {
      "time": "8040i",
      "midiNote": 35,
      "noteName": "B1",
      "velocity": 0.9291338582677166,
      "duration": "14i"
    },
    {
      "time": "8064i",
      "midiNote": 30,
      "noteName": "F#1",
      "velocity": 0.905511811023622,
      "duration": "13i"
    },
    {
      "time": "8100i",
      "midiNote": 30,
      "noteName": "F#1",
      "velocity": 0.8818897637795275,
      "duration": "14i"
    },
    {
      "time": "8136i",
      "midiNote": 30,
      "noteName": "F#1",
      "velocity": 0.937007874015748,
      "duration": "14i"
    },
    {
      "time": "8172i",
      "midiNote": 32,
      "noteName": "G#1",
      "velocity": 0.889763779527559,
      "duration": "14i"
    },
    {
      "time": "8208i",
      "midiNote": 32,
      "noteName": "G#1",
      "velocity": 0.9448818897637795,
      "duration": "14i"
    },
    {
      "time": "8232i",
      "midiNote": 32,
      "noteName": "G#1",
      "velocity": 0.9291338582677166,
      "duration": "14i"
    },
    {
      "time": "8256i",
      "midiNote": 39,
      "noteName": "D#2",
      "velocity": 0.905511811023622,
      "duration": "13i"
    },
    {
      "time": "8292i",
      "midiNote": 39,
      "noteName": "D#2",
      "velocity": 0.8818897637795275,
      "duration": "14i"
    },
    {
      "time": "8328i",
      "midiNote": 39,
      "noteName": "D#2",
      "velocity": 0.937007874015748,
      "duration": "14i"
    },
    {
      "time": "8364i",
      "midiNote": 35,
      "noteName": "B1",
      "velocity": 0.889763779527559,
      "duration": "14i"
    },
    {
      "time": "8400i",
      "midiNote": 35,
      "noteName": "B1",
      "velocity": 0.9448818897637795,
      "duration": "14i"
    },
    {
      "time": "8424i",
      "midiNote": 35,
      "noteName": "B1",
      "velocity": 0.9291338582677166,
      "duration": "14i"
    },
    {
      "time": "8448i",
      "midiNote": 30,
      "noteName": "F#1",
      "velocity": 0.905511811023622,
      "duration": "13i"
    },
    {
      "time": "8484i",
      "midiNote": 30,
      "noteName": "F#1",
      "velocity": 0.8818897637795275,
      "duration": "14i"
    },
    {
      "time": "8520i",
      "midiNote": 30,
      "noteName": "F#1",
      "velocity": 0.937007874015748,
      "duration": "14i"
    },
    {
      "time": "8556i",
      "midiNote": 32,
      "noteName": "G#1",
      "velocity": 0.889763779527559,
      "duration": "14i"
    },
    {
      "time": "8592i",
      "midiNote": 32,
      "noteName": "G#1",
      "velocity": 0.9448818897637795,
      "duration": "14i"
    },
    {
      "time": "8616i",
      "midiNote": 32,
      "noteName": "G#1",
      "velocity": 0.9291338582677166,
      "duration": "14i"
    },
    {
      "time": "8640i",
      "midiNote": 39,
      "noteName": "D#2",
      "velocity": 0.905511811023622,
      "duration": "13i"
    },
    {
      "time": "8676i",
      "midiNote": 39,
      "noteName": "D#2",
      "velocity": 0.8818897637795275,
      "duration": "14i"
    },
    {
      "time": "8712i",
      "midiNote": 39,
      "noteName": "D#2",
      "velocity": 0.937007874015748,
      "duration": "14i"
    },
    {
      "time": "8748i",
      "midiNote": 35,
      "noteName": "B1",
      "velocity": 0.889763779527559,
      "duration": "14i"
    },
    {
      "time": "8784i",
      "midiNote": 35,
      "noteName": "B1",
      "velocity": 0.9448818897637795,
      "duration": "13i"
    },
    {
      "time": "8808i",
      "midiNote": 35,
      "noteName": "B1",
      "velocity": 0.9291338582677166,
      "duration": "14i"
    },
    {
      "time": "8832i",
      "midiNote": 30,
      "noteName": "F#1",
      "velocity": 0.905511811023622,
      "duration": "13i"
    },
    {
      "time": "8868i",
      "midiNote": 30,
      "noteName": "F#1",
      "velocity": 0.8818897637795275,
      "duration": "14i"
    },
    {
      "time": "8904i",
      "midiNote": 30,
      "noteName": "F#1",
      "velocity": 0.937007874015748,
      "duration": "14i"
    },
    {
      "time": "8940i",
      "midiNote": 32,
      "noteName": "G#1",
      "velocity": 0.889763779527559,
      "duration": "14i"
    },
    {
      "time": "8976i",
      "midiNote": 32,
      "noteName": "G#1",
      "velocity": 0.9448818897637795,
      "duration": "14i"
    },
    {
      "time": "9000i",
      "midiNote": 32,
      "noteName": "G#1",
      "velocity": 0.9291338582677166,
      "duration": "14i"
    },
    {
      "time": "9024i",
      "midiNote": 39,
      "noteName": "D#2",
      "velocity": 0.905511811023622,
      "duration": "13i"
    },
    {
      "time": "9060i",
      "midiNote": 39,
      "noteName": "D#2",
      "velocity": 0.8818897637795275,
      "duration": "14i"
    },
    {
      "time": "9096i",
      "midiNote": 39,
      "noteName": "D#2",
      "velocity": 0.937007874015748,
      "duration": "14i"
    },
    {
      "time": "9132i",
      "midiNote": 35,
      "noteName": "B1",
      "velocity": 0.889763779527559,
      "duration": "14i"
    },
    {
      "time": "9168i",
      "midiNote": 35,
      "noteName": "B1",
      "velocity": 0.9448818897637795,
      "duration": "14i"
    },
    {
      "time": "9192i",
      "midiNote": 35,
      "noteName": "B1",
      "velocity": 0.9291338582677166,
      "duration": "14i"
    },
    {
      "time": "9216i",
      "midiNote": 30,
      "noteName": "F#1",
      "velocity": 0.905511811023622,
      "duration": "13i"
    },
    {
      "time": "9252i",
      "midiNote": 30,
      "noteName": "F#1",
      "velocity": 0.8818897637795275,
      "duration": "14i"
    },
    {
      "time": "9288i",
      "midiNote": 30,
      "noteName": "F#1",
      "velocity": 0.937007874015748,
      "duration": "14i"
    },
    {
      "time": "9324i",
      "midiNote": 32,
      "noteName": "G#1",
      "velocity": 0.889763779527559,
      "duration": "14i"
    },
    {
      "time": "9360i",
      "midiNote": 32,
      "noteName": "G#1",
      "velocity": 0.9448818897637795,
      "duration": "13i"
    },
    {
      "time": "9384i",
      "midiNote": 32,
      "noteName": "G#1",
      "velocity": 0.9291338582677166,
      "duration": "14i"
    },
    {
      "time": "9408i",
      "midiNote": 39,
      "noteName": "D#2",
      "velocity": 0.905511811023622,
      "duration": "13i"
    },
    {
      "time": "9444i",
      "midiNote": 39,
      "noteName": "D#2",
      "velocity": 0.8818897637795275,
      "duration": "14i"
    },
    {
      "time": "9480i",
      "midiNote": 39,
      "noteName": "D#2",
      "velocity": 0.937007874015748,
      "duration": "14i"
    },
    {
      "time": "9516i",
      "midiNote": 35,
      "noteName": "B1",
      "velocity": 0.889763779527559,
      "duration": "14i"
    },
    {
      "time": "9552i",
      "midiNote": 35,
      "noteName": "B1",
      "velocity": 0.9448818897637795,
      "duration": "14i"
    },
    {
      "time": "9576i",
      "midiNote": 35,
      "noteName": "B1",
      "velocity": 0.9291338582677166,
      "duration": "14i"
    },
    {
      "time": "9600i",
      "midiNote": 30,
      "noteName": "F#1",
      "velocity": 0.905511811023622,
      "duration": "13i"
    },
    {
      "time": "9636i",
      "midiNote": 30,
      "noteName": "F#1",
      "velocity": 0.8818897637795275,
      "duration": "14i"
    },
    {
      "time": "9672i",
      "midiNote": 30,
      "noteName": "F#1",
      "velocity": 0.937007874015748,
      "duration": "14i"
    },
    {
      "time": "9708i",
      "midiNote": 32,
      "noteName": "G#1",
      "velocity": 0.889763779527559,
      "duration": "14i"
    },
    {
      "time": "9744i",
      "midiNote": 32,
      "noteName": "G#1",
      "velocity": 0.9448818897637795,
      "duration": "13i"
    },
    {
      "time": "9768i",
      "midiNote": 32,
      "noteName": "G#1",
      "velocity": 0.9291338582677166,
      "duration": "14i"
    },
    {
      "time": "9792i",
      "midiNote": 39,
      "noteName": "D#2",
      "velocity": 0.905511811023622,
      "duration": "13i"
    },
    {
      "time": "9828i",
      "midiNote": 39,
      "noteName": "D#2",
      "velocity": 0.8818897637795275,
      "duration": "14i"
    },
    {
      "time": "9864i",
      "midiNote": 39,
      "noteName": "D#2",
      "velocity": 0.937007874015748,
      "duration": "14i"
    },
    {
      "time": "9900i",
      "midiNote": 35,
      "noteName": "B1",
      "velocity": 0.889763779527559,
      "duration": "14i"
    },
    {
      "time": "9936i",
      "midiNote": 35,
      "noteName": "B1",
      "velocity": 0.9448818897637795,
      "duration": "13i"
    },
    {
      "time": "9960i",
      "midiNote": 35,
      "noteName": "B1",
      "velocity": 0.9291338582677166,
      "duration": "14i"
    },
    {
      "time": "9984i",
      "midiNote": 30,
      "noteName": "F#1",
      "velocity": 0.905511811023622,
      "duration": "13i"
    },
    {
      "time": "10020i",
      "midiNote": 30,
      "noteName": "F#1",
      "velocity": 0.8818897637795275,
      "duration": "14i"
    },
    {
      "time": "10056i",
      "midiNote": 30,
      "noteName": "F#1",
      "velocity": 0.937007874015748,
      "duration": "14i"
    },
    {
      "time": "10092i",
      "midiNote": 32,
      "noteName": "G#1",
      "velocity": 0.889763779527559,
      "duration": "14i"
    },
    {
      "time": "10128i",
      "midiNote": 32,
      "noteName": "G#1",
      "velocity": 0.9448818897637795,
      "duration": "13i"
    },
    {
      "time": "10152i",
      "midiNote": 32,
      "noteName": "G#1",
      "velocity": 0.9291338582677166,
      "duration": "14i"
    },
    {
      "time": "10176i",
      "midiNote": 39,
      "noteName": "D#2",
      "velocity": 0.905511811023622,
      "duration": "13i"
    },
    {
      "time": "10212i",
      "midiNote": 39,
      "noteName": "D#2",
      "velocity": 0.8818897637795275,
      "duration": "14i"
    },
    {
      "time": "10248i",
      "midiNote": 39,
      "noteName": "D#2",
      "velocity": 0.937007874015748,
      "duration": "14i"
    },
    {
      "time": "10284i",
      "midiNote": 35,
      "noteName": "B1",
      "velocity": 0.889763779527559,
      "duration": "14i"
    },
    {
      "time": "10320i",
      "midiNote": 35,
      "noteName": "B1",
      "velocity": 0.9448818897637795,
      "duration": "14i"
    },
    {
      "time": "10344i",
      "midiNote": 35,
      "noteName": "B1",
      "velocity": 0.9291338582677166,
      "duration": "14i"
    },
    {
      "time": "10368i",
      "midiNote": 30,
      "noteName": "F#1",
      "velocity": 0.905511811023622,
      "duration": "13i"
    },
    {
      "time": "10404i",
      "midiNote": 30,
      "noteName": "F#1",
      "velocity": 0.8818897637795275,
      "duration": "14i"
    },
    {
      "time": "10440i",
      "midiNote": 30,
      "noteName": "F#1",
      "velocity": 0.937007874015748,
      "duration": "14i"
    },
    {
      "time": "10476i",
      "midiNote": 32,
      "noteName": "G#1",
      "velocity": 0.889763779527559,
      "duration": "14i"
    },
    {
      "time": "10512i",
      "midiNote": 32,
      "noteName": "G#1",
      "velocity": 0.9448818897637795,
      "duration": "14i"
    },
    {
      "time": "10536i",
      "midiNote": 32,
      "noteName": "G#1",
      "velocity": 0.9291338582677166,
      "duration": "14i"
    },
    {
      "time": "10560i",
      "midiNote": 39,
      "noteName": "D#2",
      "velocity": 0.905511811023622,
      "duration": "13i"
    },
    {
      "time": "10596i",
      "midiNote": 39,
      "noteName": "D#2",
      "velocity": 0.8818897637795275,
      "duration": "14i"
    },
    {
      "time": "10632i",
      "midiNote": 39,
      "noteName": "D#2",
      "velocity": 0.937007874015748,
      "duration": "14i"
    },
    {
      "time": "10668i",
      "midiNote": 35,
      "noteName": "B1",
      "velocity": 0.889763779527559,
      "duration": "14i"
    },
    {
      "time": "10704i",
      "midiNote": 35,
      "noteName": "B1",
      "velocity": 0.9448818897637795,
      "duration": "13i"
    },
    {
      "time": "10728i",
      "midiNote": 35,
      "noteName": "B1",
      "velocity": 0.9291338582677166,
      "duration": "14i"
    },
    {
      "time": "10752i",
      "midiNote": 30,
      "noteName": "F#1",
      "velocity": 0.905511811023622,
      "duration": "13i"
    },
    {
      "time": "10788i",
      "midiNote": 30,
      "noteName": "F#1",
      "velocity": 0.8818897637795275,
      "duration": "14i"
    },
    {
      "time": "10824i",
      "midiNote": 30,
      "noteName": "F#1",
      "velocity": 0.937007874015748,
      "duration": "14i"
    },
    {
      "time": "10860i",
      "midiNote": 32,
      "noteName": "G#1",
      "velocity": 0.889763779527559,
      "duration": "14i"
    },
    {
      "time": "10896i",
      "midiNote": 32,
      "noteName": "G#1",
      "velocity": 0.9448818897637795,
      "duration": "13i"
    },
    {
      "time": "10920i",
      "midiNote": 32,
      "noteName": "G#1",
      "velocity": 0.9291338582677166,
      "duration": "14i"
    },
    {
      "time": "10944i",
      "midiNote": 39,
      "noteName": "D#2",
      "velocity": 0.905511811023622,
      "duration": "13i"
    },
    {
      "time": "10980i",
      "midiNote": 39,
      "noteName": "D#2",
      "velocity": 0.8818897637795275,
      "duration": "14i"
    },
    {
      "time": "11016i",
      "midiNote": 39,
      "noteName": "D#2",
      "velocity": 0.937007874015748,
      "duration": "14i"
    },
    {
      "time": "11052i",
      "midiNote": 35,
      "noteName": "B1",
      "velocity": 0.889763779527559,
      "duration": "14i"
    },
    {
      "time": "11088i",
      "midiNote": 35,
      "noteName": "B1",
      "velocity": 0.9448818897637795,
      "duration": "13i"
    },
    {
      "time": "11112i",
      "midiNote": 35,
      "noteName": "B1",
      "velocity": 0.9291338582677166,
      "duration": "14i"
    },
    {
      "time": "11136i",
      "midiNote": 30,
      "noteName": "F#1",
      "velocity": 0.905511811023622,
      "duration": "13i"
    },
    {
      "time": "11172i",
      "midiNote": 30,
      "noteName": "F#1",
      "velocity": 0.8818897637795275,
      "duration": "14i"
    },
    {
      "time": "11208i",
      "midiNote": 30,
      "noteName": "F#1",
      "velocity": 0.937007874015748,
      "duration": "14i"
    },
    {
      "time": "11244i",
      "midiNote": 32,
      "noteName": "G#1",
      "velocity": 0.889763779527559,
      "duration": "14i"
    },
    {
      "time": "11280i",
      "midiNote": 32,
      "noteName": "G#1",
      "velocity": 0.9448818897637795,
      "duration": "13i"
    },
    {
      "time": "11304i",
      "midiNote": 32,
      "noteName": "G#1",
      "velocity": 0.9291338582677166,
      "duration": "14i"
    },
    {
      "time": "11328i",
      "midiNote": 39,
      "noteName": "D#2",
      "velocity": 0.905511811023622,
      "duration": "13i"
    },
    {
      "time": "11364i",
      "midiNote": 39,
      "noteName": "D#2",
      "velocity": 0.8818897637795275,
      "duration": "14i"
    },
    {
      "time": "11400i",
      "midiNote": 39,
      "noteName": "D#2",
      "velocity": 0.937007874015748,
      "duration": "14i"
    },
    {
      "time": "11436i",
      "midiNote": 35,
      "noteName": "B1",
      "velocity": 0.889763779527559,
      "duration": "14i"
    },
    {
      "time": "11472i",
      "midiNote": 35,
      "noteName": "B1",
      "velocity": 0.9448818897637795,
      "duration": "14i"
    },
    {
      "time": "11496i",
      "midiNote": 35,
      "noteName": "B1",
      "velocity": 0.9291338582677166,
      "duration": "14i"
    },
    {
      "time": "11520i",
      "midiNote": 30,
      "noteName": "F#1",
      "velocity": 0.905511811023622,
      "duration": "13i"
    },
    {
      "time": "11556i",
      "midiNote": 30,
      "noteName": "F#1",
      "velocity": 0.8818897637795275,
      "duration": "14i"
    },
    {
      "time": "11592i",
      "midiNote": 30,
      "noteName": "F#1",
      "velocity": 0.937007874015748,
      "duration": "14i"
    },
    {
      "time": "11628i",
      "midiNote": 32,
      "noteName": "G#1",
      "velocity": 0.889763779527559,
      "duration": "14i"
    },
    {
      "time": "11664i",
      "midiNote": 32,
      "noteName": "G#1",
      "velocity": 0.9448818897637795,
      "duration": "14i"
    },
    {
      "time": "11688i",
      "midiNote": 32,
      "noteName": "G#1",
      "velocity": 0.9291338582677166,
      "duration": "14i"
    },
    {
      "time": "11712i",
      "midiNote": 39,
      "noteName": "D#2",
      "velocity": 0.905511811023622,
      "duration": "13i"
    },
    {
      "time": "11748i",
      "midiNote": 39,
      "noteName": "D#2",
      "velocity": 0.8818897637795275,
      "duration": "14i"
    },
    {
      "time": "11784i",
      "midiNote": 39,
      "noteName": "D#2",
      "velocity": 0.937007874015748,
      "duration": "14i"
    },
    {
      "time": "11820i",
      "midiNote": 35,
      "noteName": "B1",
      "velocity": 0.889763779527559,
      "duration": "14i"
    },
    {
      "time": "11856i",
      "midiNote": 35,
      "noteName": "B1",
      "velocity": 0.9448818897637795,
      "duration": "14i"
    },
    {
      "time": "11880i",
      "midiNote": 35,
      "noteName": "B1",
      "velocity": 0.9291338582677166,
      "duration": "14i"
    },
    {
      "time": "11904i",
      "midiNote": 30,
      "noteName": "F#1",
      "velocity": 0.905511811023622,
      "duration": "13i"
    },
    {
      "time": "11940i",
      "midiNote": 30,
      "noteName": "F#1",
      "velocity": 0.8818897637795275,
      "duration": "14i"
    },
    {
      "time": "11976i",
      "midiNote": 30,
      "noteName": "F#1",
      "velocity": 0.937007874015748,
      "duration": "14i"
    },
    {
      "time": "12012i",
      "midiNote": 32,
      "noteName": "G#1",
      "velocity": 0.889763779527559,
      "duration": "14i"
    },
    {
      "time": "12048i",
      "midiNote": 32,
      "noteName": "G#1",
      "velocity": 0.9448818897637795,
      "duration": "13i"
    },
    {
      "time": "12072i",
      "midiNote": 32,
      "noteName": "G#1",
      "velocity": 0.9291338582677166,
      "duration": "14i"
    },
    {
      "time": "12096i",
      "midiNote": 39,
      "noteName": "D#2",
      "velocity": 0.905511811023622,
      "duration": "13i"
    },
    {
      "time": "12132i",
      "midiNote": 39,
      "noteName": "D#2",
      "velocity": 0.8818897637795275,
      "duration": "14i"
    },
    {
      "time": "12168i",
      "midiNote": 39,
      "noteName": "D#2",
      "velocity": 0.937007874015748,
      "duration": "14i"
    },
    {
      "time": "12204i",
      "midiNote": 35,
      "noteName": "B1",
      "velocity": 0.889763779527559,
      "duration": "14i"
    },
    {
      "time": "12240i",
      "midiNote": 35,
      "noteName": "B1",
      "velocity": 0.9448818897637795,
      "duration": "13i"
    },
    {
      "time": "12264i",
      "midiNote": 35,
      "noteName": "B1",
      "velocity": 0.9291338582677166,
      "duration": "14i"
    },
    {
      "time": "12288i",
      "midiNote": 30,
      "noteName": "F#1",
      "velocity": 0.905511811023622,
      "duration": "13i"
    },
    {
      "time": "12324i",
      "midiNote": 30,
      "noteName": "F#1",
      "velocity": 0.8818897637795275,
      "duration": "14i"
    },
    {
      "time": "12360i",
      "midiNote": 30,
      "noteName": "F#1",
      "velocity": 0.937007874015748,
      "duration": "14i"
    },
    {
      "time": "12396i",
      "midiNote": 32,
      "noteName": "G#1",
      "velocity": 0.889763779527559,
      "duration": "14i"
    },
    {
      "time": "12432i",
      "midiNote": 32,
      "noteName": "G#1",
      "velocity": 0.9448818897637795,
      "duration": "13i"
    },
    {
      "time": "12456i",
      "midiNote": 32,
      "noteName": "G#1",
      "velocity": 0.9291338582677166,
      "duration": "14i"
    },
    {
      "time": "12480i",
      "midiNote": 39,
      "noteName": "D#2",
      "velocity": 0.905511811023622,
      "duration": "13i"
    },
    {
      "time": "12516i",
      "midiNote": 39,
      "noteName": "D#2",
      "velocity": 0.8818897637795275,
      "duration": "14i"
    },
    {
      "time": "12552i",
      "midiNote": 39,
      "noteName": "D#2",
      "velocity": 0.937007874015748,
      "duration": "14i"
    },
    {
      "time": "12588i",
      "midiNote": 35,
      "noteName": "B1",
      "velocity": 0.889763779527559,
      "duration": "14i"
    },
    {
      "time": "12624i",
      "midiNote": 35,
      "noteName": "B1",
      "velocity": 0.9448818897637795,
      "duration": "13i"
    },
    {
      "time": "12648i",
      "midiNote": 35,
      "noteName": "B1",
      "velocity": 0.9291338582677166,
      "duration": "14i"
    },
    {
      "time": "12672i",
      "midiNote": 30,
      "noteName": "F#1",
      "velocity": 0.905511811023622,
      "duration": "13i"
    },
    {
      "time": "12708i",
      "midiNote": 30,
      "noteName": "F#1",
      "velocity": 0.8818897637795275,
      "duration": "14i"
    },
    {
      "time": "12744i",
      "midiNote": 30,
      "noteName": "F#1",
      "velocity": 0.937007874015748,
      "duration": "14i"
    },
    {
      "time": "12780i",
      "midiNote": 32,
      "noteName": "G#1",
      "velocity": 0.889763779527559,
      "duration": "14i"
    },
    {
      "time": "12816i",
      "midiNote": 32,
      "noteName": "G#1",
      "velocity": 0.9448818897637795,
      "duration": "13i"
    },
    {
      "time": "12840i",
      "midiNote": 32,
      "noteName": "G#1",
      "velocity": 0.9291338582677166,
      "duration": "14i"
    },
    {
      "time": "12864i",
      "midiNote": 39,
      "noteName": "D#2",
      "velocity": 0.905511811023622,
      "duration": "13i"
    },
    {
      "time": "12900i",
      "midiNote": 39,
      "noteName": "D#2",
      "velocity": 0.8818897637795275,
      "duration": "14i"
    },
    {
      "time": "12936i",
      "midiNote": 39,
      "noteName": "D#2",
      "velocity": 0.937007874015748,
      "duration": "14i"
    },
    {
      "time": "12972i",
      "midiNote": 35,
      "noteName": "B1",
      "velocity": 0.889763779527559,
      "duration": "14i"
    },
    {
      "time": "13008i",
      "midiNote": 35,
      "noteName": "B1",
      "velocity": 0.9448818897637795,
      "duration": "14i"
    },
    {
      "time": "13032i",
      "midiNote": 35,
      "noteName": "B1",
      "velocity": 0.9291338582677166,
      "duration": "14i"
    },
    {
      "time": "13056i",
      "midiNote": 30,
      "noteName": "F#1",
      "velocity": 0.905511811023622,
      "duration": "13i"
    },
    {
      "time": "13092i",
      "midiNote": 30,
      "noteName": "F#1",
      "velocity": 0.8818897637795275,
      "duration": "14i"
    },
    {
      "time": "13128i",
      "midiNote": 30,
      "noteName": "F#1",
      "velocity": 0.937007874015748,
      "duration": "14i"
    },
    {
      "time": "13164i",
      "midiNote": 32,
      "noteName": "G#1",
      "velocity": 0.889763779527559,
      "duration": "14i"
    },
    {
      "time": "13200i",
      "midiNote": 32,
      "noteName": "G#1",
      "velocity": 0.9448818897637795,
      "duration": "13i"
    },
    {
      "time": "13224i",
      "midiNote": 32,
      "noteName": "G#1",
      "velocity": 0.9291338582677166,
      "duration": "14i"
    },
    {
      "time": "13248i",
      "midiNote": 39,
      "noteName": "D#2",
      "velocity": 0.905511811023622,
      "duration": "13i"
    },
    {
      "time": "13284i",
      "midiNote": 39,
      "noteName": "D#2",
      "velocity": 0.8818897637795275,
      "duration": "14i"
    },
    {
      "time": "13320i",
      "midiNote": 39,
      "noteName": "D#2",
      "velocity": 0.937007874015748,
      "duration": "14i"
    },
    {
      "time": "13356i",
      "midiNote": 35,
      "noteName": "B1",
      "velocity": 0.889763779527559,
      "duration": "14i"
    },
    {
      "time": "13392i",
      "midiNote": 35,
      "noteName": "B1",
      "velocity": 0.9448818897637795,
      "duration": "13i"
    },
    {
      "time": "13416i",
      "midiNote": 35,
      "noteName": "B1",
      "velocity": 0.9291338582677166,
      "duration": "14i"
    },
    {
      "time": "13440i",
      "midiNote": 30,
      "noteName": "F#1",
      "velocity": 0.905511811023622,
      "duration": "13i"
    },
    {
      "time": "13476i",
      "midiNote": 30,
      "noteName": "F#1",
      "velocity": 0.8818897637795275,
      "duration": "14i"
    },
    {
      "time": "13512i",
      "midiNote": 30,
      "noteName": "F#1",
      "velocity": 0.937007874015748,
      "duration": "14i"
    },
    {
      "time": "13548i",
      "midiNote": 32,
      "noteName": "G#1",
      "velocity": 0.889763779527559,
      "duration": "14i"
    },
    {
      "time": "13584i",
      "midiNote": 32,
      "noteName": "G#1",
      "velocity": 0.9448818897637795,
      "duration": "13i"
    },
    {
      "time": "13608i",
      "midiNote": 32,
      "noteName": "G#1",
      "velocity": 0.9291338582677166,
      "duration": "14i"
    },
    {
      "time": "13632i",
      "midiNote": 51,
      "noteName": "D#3",
      "velocity": 0.905511811023622,
      "duration": "13i"
    },
    {
      "time": "13668i",
      "midiNote": 51,
      "noteName": "D#3",
      "velocity": 0.8818897637795275,
      "duration": "14i"
    },
    {
      "time": "13704i",
      "midiNote": 51,
      "noteName": "D#3",
      "velocity": 0.937007874015748,
      "duration": "14i"
    },
    {
      "time": "13740i",
      "midiNote": 51,
      "noteName": "D#3",
      "velocity": 0.889763779527559,
      "duration": "14i"
    },
    {
      "time": "13776i",
      "midiNote": 51,
      "noteName": "D#3",
      "velocity": 0.9448818897637795,
      "duration": "14i"
    },
    {
      "time": "13800i",
      "midiNote": 51,
      "noteName": "D#3",
      "velocity": 0.9291338582677166,
      "duration": "12i"
    },
    {
      "time": "13812i",
      "midiNote": 52,
      "noteName": "E3",
      "velocity": 0.9291338582677166,
      "duration": "12i"
    },
    {
      "time": "13824i",
      "midiNote": 51,
      "noteName": "D#3",
      "velocity": 0.905511811023622,
      "duration": "13i"
    },
    {
      "time": "13860i",
      "midiNote": 51,
      "noteName": "D#3",
      "velocity": 0.8818897637795275,
      "duration": "14i"
    },
    {
      "time": "13896i",
      "midiNote": 51,
      "noteName": "D#3",
      "velocity": 0.937007874015748,
      "duration": "14i"
    },
    {
      "time": "13932i",
      "midiNote": 51,
      "noteName": "D#3",
      "velocity": 0.889763779527559,
      "duration": "14i"
    },
    {
      "time": "13968i",
      "midiNote": 51,
      "noteName": "D#3",
      "velocity": 0.9448818897637795,
      "duration": "13i"
    },
    {
      "time": "13992i",
      "midiNote": 51,
      "noteName": "D#3",
      "velocity": 0.9291338582677166,
      "duration": "12i"
    },
    {
      "time": "14004i",
      "midiNote": 52,
      "noteName": "E3",
      "velocity": 0.9291338582677166,
      "duration": "12i"
    },
    {
      "time": "14016i",
      "midiNote": 51,
      "noteName": "D#3",
      "velocity": 0.905511811023622,
      "duration": "13i"
    },
    {
      "time": "14052i",
      "midiNote": 51,
      "noteName": "D#3",
      "velocity": 0.8818897637795275,
      "duration": "14i"
    },
    {
      "time": "14088i",
      "midiNote": 51,
      "noteName": "D#3",
      "velocity": 0.937007874015748,
      "duration": "14i"
    },
    {
      "time": "14124i",
      "midiNote": 51,
      "noteName": "D#3",
      "velocity": 0.889763779527559,
      "duration": "14i"
    },
    {
      "time": "14160i",
      "midiNote": 51,
      "noteName": "D#3",
      "velocity": 0.9448818897637795,
      "duration": "13i"
    },
    {
      "time": "14184i",
      "midiNote": 51,
      "noteName": "D#3",
      "velocity": 0.9291338582677166,
      "duration": "12i"
    },
    {
      "time": "14196i",
      "midiNote": 52,
      "noteName": "E3",
      "velocity": 0.9291338582677166,
      "duration": "12i"
    },
    {
      "time": "14208i",
      "midiNote": 51,
      "noteName": "D#3",
      "velocity": 0.905511811023622,
      "duration": "13i"
    },
    {
      "time": "14244i",
      "midiNote": 51,
      "noteName": "D#3",
      "velocity": 0.8818897637795275,
      "duration": "14i"
    },
    {
      "time": "14280i",
      "midiNote": 51,
      "noteName": "D#3",
      "velocity": 0.937007874015748,
      "duration": "14i"
    },
    {
      "time": "14316i",
      "midiNote": 51,
      "noteName": "D#3",
      "velocity": 0.889763779527559,
      "duration": "14i"
    },
    {
      "time": "14352i",
      "midiNote": 51,
      "noteName": "D#3",
      "velocity": 0.9448818897637795,
      "duration": "14i"
    },
    {
      "time": "14376i",
      "midiNote": 51,
      "noteName": "D#3",
      "velocity": 0.9291338582677166,
      "duration": "12i"
    },
    {
      "time": "14388i",
      "midiNote": 52,
      "noteName": "E3",
      "velocity": 0.9291338582677166,
      "duration": "12i"
    },
    {
      "time": "14400i",
      "midiNote": 51,
      "noteName": "D#3",
      "velocity": 0.905511811023622,
      "duration": "13i"
    },
    {
      "time": "14436i",
      "midiNote": 51,
      "noteName": "D#3",
      "velocity": 0.8818897637795275,
      "duration": "14i"
    },
    {
      "time": "14472i",
      "midiNote": 51,
      "noteName": "D#3",
      "velocity": 0.937007874015748,
      "duration": "14i"
    },
    {
      "time": "14508i",
      "midiNote": 51,
      "noteName": "D#3",
      "velocity": 0.889763779527559,
      "duration": "14i"
    },
    {
      "time": "14544i",
      "midiNote": 51,
      "noteName": "D#3",
      "velocity": 0.9448818897637795,
      "duration": "13i"
    },
    {
      "time": "14568i",
      "midiNote": 51,
      "noteName": "D#3",
      "velocity": 0.9291338582677166,
      "duration": "12i"
    },
    {
      "time": "14580i",
      "midiNote": 52,
      "noteName": "E3",
      "velocity": 0.9291338582677166,
      "duration": "12i"
    },
    {
      "time": "14592i",
      "midiNote": 51,
      "noteName": "D#3",
      "velocity": 0.905511811023622,
      "duration": "13i"
    },
    {
      "time": "14628i",
      "midiNote": 51,
      "noteName": "D#3",
      "velocity": 0.8818897637795275,
      "duration": "14i"
    },
    {
      "time": "14664i",
      "midiNote": 51,
      "noteName": "D#3",
      "velocity": 0.937007874015748,
      "duration": "14i"
    },
    {
      "time": "14700i",
      "midiNote": 51,
      "noteName": "D#3",
      "velocity": 0.889763779527559,
      "duration": "14i"
    },
    {
      "time": "14736i",
      "midiNote": 51,
      "noteName": "D#3",
      "velocity": 0.9448818897637795,
      "duration": "14i"
    },
    {
      "time": "14760i",
      "midiNote": 51,
      "noteName": "D#3",
      "velocity": 0.9291338582677166,
      "duration": "12i"
    },
    {
      "time": "14772i",
      "midiNote": 52,
      "noteName": "E3",
      "velocity": 0.9291338582677166,
      "duration": "12i"
    },
    {
      "time": "14784i",
      "midiNote": 51,
      "noteName": "D#3",
      "velocity": 0.905511811023622,
      "duration": "13i"
    },
    {
      "time": "14820i",
      "midiNote": 51,
      "noteName": "D#3",
      "velocity": 0.8818897637795275,
      "duration": "14i"
    },
    {
      "time": "14856i",
      "midiNote": 51,
      "noteName": "D#3",
      "velocity": 0.937007874015748,
      "duration": "14i"
    },
    {
      "time": "14892i",
      "midiNote": 51,
      "noteName": "D#3",
      "velocity": 0.889763779527559,
      "duration": "14i"
    },
    {
      "time": "14928i",
      "midiNote": 51,
      "noteName": "D#3",
      "velocity": 0.9448818897637795,
      "duration": "13i"
    },
    {
      "time": "14952i",
      "midiNote": 51,
      "noteName": "D#3",
      "velocity": 0.9291338582677166,
      "duration": "12i"
    },
    {
      "time": "14964i",
      "midiNote": 52,
      "noteName": "E3",
      "velocity": 0.9291338582677166,
      "duration": "12i"
    },
    {
      "time": "14976i",
      "midiNote": 51,
      "noteName": "D#3",
      "velocity": 0.905511811023622,
      "duration": "13i"
    },
    {
      "time": "15012i",
      "midiNote": 51,
      "noteName": "D#3",
      "velocity": 0.8818897637795275,
      "duration": "14i"
    },
    {
      "time": "15048i",
      "midiNote": 51,
      "noteName": "D#3",
      "velocity": 0.937007874015748,
      "duration": "14i"
    },
    {
      "time": "15084i",
      "midiNote": 51,
      "noteName": "D#3",
      "velocity": 0.889763779527559,
      "duration": "14i"
    },
    {
      "time": "15120i",
      "midiNote": 51,
      "noteName": "D#3",
      "velocity": 0.9448818897637795,
      "duration": "13i"
    },
    {
      "time": "15144i",
      "midiNote": 51,
      "noteName": "D#3",
      "velocity": 0.9291338582677166,
      "duration": "12i"
    },
    {
      "time": "15156i",
      "midiNote": 52,
      "noteName": "E3",
      "velocity": 0.9291338582677166,
      "duration": "12i"
    },
    {
      "time": "15168i",
      "midiNote": 51,
      "noteName": "D#3",
      "velocity": 0.905511811023622,
      "duration": "13i"
    },
    {
      "time": "15204i",
      "midiNote": 51,
      "noteName": "D#3",
      "velocity": 0.8818897637795275,
      "duration": "14i"
    },
    {
      "time": "15240i",
      "midiNote": 51,
      "noteName": "D#3",
      "velocity": 0.937007874015748,
      "duration": "14i"
    },
    {
      "time": "15276i",
      "midiNote": 51,
      "noteName": "D#3",
      "velocity": 0.889763779527559,
      "duration": "14i"
    },
    {
      "time": "15312i",
      "midiNote": 51,
      "noteName": "D#3",
      "velocity": 0.9448818897637795,
      "duration": "14i"
    },
    {
      "time": "15336i",
      "midiNote": 51,
      "noteName": "D#3",
      "velocity": 0.9291338582677166,
      "duration": "12i"
    },
    {
      "time": "15348i",
      "midiNote": 52,
      "noteName": "E3",
      "velocity": 0.9291338582677166,
      "duration": "12i"
    },
    {
      "time": "15360i",
      "midiNote": 51,
      "noteName": "D#3",
      "velocity": 0.905511811023622,
      "duration": "13i"
    },
    {
      "time": "15396i",
      "midiNote": 51,
      "noteName": "D#3",
      "velocity": 0.8818897637795275,
      "duration": "14i"
    },
    {
      "time": "15432i",
      "midiNote": 51,
      "noteName": "D#3",
      "velocity": 0.937007874015748,
      "duration": "14i"
    },
    {
      "time": "15468i",
      "midiNote": 51,
      "noteName": "D#3",
      "velocity": 0.889763779527559,
      "duration": "14i"
    },
    {
      "time": "15504i",
      "midiNote": 51,
      "noteName": "D#3",
      "velocity": 0.9448818897637795,
      "duration": "14i"
    },
    {
      "time": "15528i",
      "midiNote": 51,
      "noteName": "D#3",
      "velocity": 0.9291338582677166,
      "duration": "12i"
    },
    {
      "time": "15540i",
      "midiNote": 52,
      "noteName": "E3",
      "velocity": 0.9291338582677166,
      "duration": "12i"
    },
    {
      "time": "15552i",
      "midiNote": 51,
      "noteName": "D#3",
      "velocity": 0.905511811023622,
      "duration": "13i"
    },
    {
      "time": "15588i",
      "midiNote": 51,
      "noteName": "D#3",
      "velocity": 0.8818897637795275,
      "duration": "14i"
    },
    {
      "time": "15624i",
      "midiNote": 51,
      "noteName": "D#3",
      "velocity": 0.937007874015748,
      "duration": "14i"
    },
    {
      "time": "15660i",
      "midiNote": 51,
      "noteName": "D#3",
      "velocity": 0.889763779527559,
      "duration": "14i"
    },
    {
      "time": "15696i",
      "midiNote": 51,
      "noteName": "D#3",
      "velocity": 0.9448818897637795,
      "duration": "14i"
    },
    {
      "time": "15720i",
      "midiNote": 51,
      "noteName": "D#3",
      "velocity": 0.9291338582677166,
      "duration": "12i"
    },
    {
      "time": "15732i",
      "midiNote": 52,
      "noteName": "E3",
      "velocity": 0.9291338582677166,
      "duration": "12i"
    },
    {
      "time": "15744i",
      "midiNote": 51,
      "noteName": "D#3",
      "velocity": 0.905511811023622,
      "duration": "13i"
    },
    {
      "time": "15780i",
      "midiNote": 51,
      "noteName": "D#3",
      "velocity": 0.8818897637795275,
      "duration": "14i"
    },
    {
      "time": "15816i",
      "midiNote": 51,
      "noteName": "D#3",
      "velocity": 0.937007874015748,
      "duration": "14i"
    },
    {
      "time": "15852i",
      "midiNote": 51,
      "noteName": "D#3",
      "velocity": 0.889763779527559,
      "duration": "14i"
    },
    {
      "time": "15888i",
      "midiNote": 51,
      "noteName": "D#3",
      "velocity": 0.9448818897637795,
      "duration": "13i"
    },
    {
      "time": "15912i",
      "midiNote": 51,
      "noteName": "D#3",
      "velocity": 0.9291338582677166,
      "duration": "12i"
    },
    {
      "time": "15924i",
      "midiNote": 52,
      "noteName": "E3",
      "velocity": 0.9291338582677166,
      "duration": "12i"
    },
    {
      "time": "15936i",
      "midiNote": 51,
      "noteName": "D#3",
      "velocity": 0.905511811023622,
      "duration": "13i"
    },
    {
      "time": "15972i",
      "midiNote": 51,
      "noteName": "D#3",
      "velocity": 0.8818897637795275,
      "duration": "14i"
    },
    {
      "time": "16008i",
      "midiNote": 51,
      "noteName": "D#3",
      "velocity": 0.937007874015748,
      "duration": "14i"
    },
    {
      "time": "16044i",
      "midiNote": 47,
      "noteName": "B2",
      "velocity": 0.889763779527559,
      "duration": "14i"
    },
    {
      "time": "16080i",
      "midiNote": 47,
      "noteName": "B2",
      "velocity": 0.9448818897637795,
      "duration": "13i"
    },
    {
      "time": "16104i",
      "midiNote": 47,
      "noteName": "B2",
      "velocity": 0.9291338582677166,
      "duration": "14i"
    },
    {
      "time": "16128i",
      "midiNote": 42,
      "noteName": "F#2",
      "velocity": 0.905511811023622,
      "duration": "13i"
    },
    {
      "time": "16164i",
      "midiNote": 42,
      "noteName": "F#2",
      "velocity": 0.8818897637795275,
      "duration": "14i"
    },
    {
      "time": "16200i",
      "midiNote": 42,
      "noteName": "F#2",
      "velocity": 0.937007874015748,
      "duration": "14i"
    },
    {
      "time": "16236i",
      "midiNote": 44,
      "noteName": "G#2",
      "velocity": 0.889763779527559,
      "duration": "14i"
    },
    {
      "time": "16272i",
      "midiNote": 44,
      "noteName": "G#2",
      "velocity": 0.9448818897637795,
      "duration": "13i"
    },
    {
      "time": "16296i",
      "midiNote": 44,
      "noteName": "G#2",
      "velocity": 0.9291338582677166,
      "duration": "14i"
    },
    {
      "time": "16320i",
      "midiNote": 51,
      "noteName": "D#3",
      "velocity": 0.905511811023622,
      "duration": "13i"
    },
    {
      "time": "16356i",
      "midiNote": 51,
      "noteName": "D#3",
      "velocity": 0.8818897637795275,
      "duration": "14i"
    },
    {
      "time": "16392i",
      "midiNote": 51,
      "noteName": "D#3",
      "velocity": 0.937007874015748,
      "duration": "14i"
    },
    {
      "time": "16428i",
      "midiNote": 47,
      "noteName": "B2",
      "velocity": 0.889763779527559,
      "duration": "14i"
    },
    {
      "time": "16464i",
      "midiNote": 47,
      "noteName": "B2",
      "velocity": 0.9448818897637795,
      "duration": "13i"
    },
    {
      "time": "16488i",
      "midiNote": 47,
      "noteName": "B2",
      "velocity": 0.9291338582677166,
      "duration": "14i"
    },
    {
      "time": "16512i",
      "midiNote": 42,
      "noteName": "F#2",
      "velocity": 0.905511811023622,
      "duration": "13i"
    },
    {
      "time": "16548i",
      "midiNote": 42,
      "noteName": "F#2",
      "velocity": 0.8818897637795275,
      "duration": "14i"
    },
    {
      "time": "16584i",
      "midiNote": 42,
      "noteName": "F#2",
      "velocity": 0.937007874015748,
      "duration": "14i"
    },
    {
      "time": "16620i",
      "midiNote": 44,
      "noteName": "G#2",
      "velocity": 0.889763779527559,
      "duration": "14i"
    },
    {
      "time": "16656i",
      "midiNote": 44,
      "noteName": "G#2",
      "velocity": 0.9448818897637795,
      "duration": "13i"
    },
    {
      "time": "16680i",
      "midiNote": 44,
      "noteName": "G#2",
      "velocity": 0.9291338582677166,
      "duration": "14i"
    },
    {
      "time": "16704i",
      "midiNote": 51,
      "noteName": "D#3",
      "velocity": 0.905511811023622,
      "duration": "13i"
    },
    {
      "time": "16740i",
      "midiNote": 51,
      "noteName": "D#3",
      "velocity": 0.8818897637795275,
      "duration": "14i"
    },
    {
      "time": "16776i",
      "midiNote": 51,
      "noteName": "D#3",
      "velocity": 0.937007874015748,
      "duration": "14i"
    },
    {
      "time": "16812i",
      "midiNote": 47,
      "noteName": "B2",
      "velocity": 0.889763779527559,
      "duration": "14i"
    },
    {
      "time": "16848i",
      "midiNote": 47,
      "noteName": "B2",
      "velocity": 0.9448818897637795,
      "duration": "13i"
    },
    {
      "time": "16872i",
      "midiNote": 47,
      "noteName": "B2",
      "velocity": 0.9291338582677166,
      "duration": "14i"
    },
    {
      "time": "16896i",
      "midiNote": 42,
      "noteName": "F#2",
      "velocity": 0.905511811023622,
      "duration": "13i"
    },
    {
      "time": "16932i",
      "midiNote": 42,
      "noteName": "F#2",
      "velocity": 0.8818897637795275,
      "duration": "14i"
    },
    {
      "time": "16968i",
      "midiNote": 42,
      "noteName": "F#2",
      "velocity": 0.937007874015748,
      "duration": "14i"
    },
    {
      "time": "17004i",
      "midiNote": 44,
      "noteName": "G#2",
      "velocity": 0.889763779527559,
      "duration": "14i"
    },
    {
      "time": "17040i",
      "midiNote": 44,
      "noteName": "G#2",
      "velocity": 0.9448818897637795,
      "duration": "14i"
    },
    {
      "time": "17064i",
      "midiNote": 44,
      "noteName": "G#2",
      "velocity": 0.9291338582677166,
      "duration": "14i"
    },
    {
      "time": "17088i",
      "midiNote": 51,
      "noteName": "D#3",
      "velocity": 0.905511811023622,
      "duration": "13i"
    },
    {
      "time": "17124i",
      "midiNote": 51,
      "noteName": "D#3",
      "velocity": 0.8818897637795275,
      "duration": "14i"
    },
    {
      "time": "17160i",
      "midiNote": 51,
      "noteName": "D#3",
      "velocity": 0.937007874015748,
      "duration": "14i"
    },
    {
      "time": "17196i",
      "midiNote": 47,
      "noteName": "B2",
      "velocity": 0.889763779527559,
      "duration": "14i"
    },
    {
      "time": "17232i",
      "midiNote": 47,
      "noteName": "B2",
      "velocity": 0.9448818897637795,
      "duration": "13i"
    },
    {
      "time": "17256i",
      "midiNote": 47,
      "noteName": "B2",
      "velocity": 0.9291338582677166,
      "duration": "14i"
    },
    {
      "time": "17280i",
      "midiNote": 42,
      "noteName": "F#2",
      "velocity": 0.905511811023622,
      "duration": "13i"
    },
    {
      "time": "17316i",
      "midiNote": 42,
      "noteName": "F#2",
      "velocity": 0.8818897637795275,
      "duration": "14i"
    },
    {
      "time": "17352i",
      "midiNote": 42,
      "noteName": "F#2",
      "velocity": 0.937007874015748,
      "duration": "14i"
    },
    {
      "time": "17388i",
      "midiNote": 44,
      "noteName": "G#2",
      "velocity": 0.889763779527559,
      "duration": "14i"
    },
    {
      "time": "17424i",
      "midiNote": 44,
      "noteName": "G#2",
      "velocity": 0.9448818897637795,
      "duration": "14i"
    },
    {
      "time": "17448i",
      "midiNote": 44,
      "noteName": "G#2",
      "velocity": 0.9291338582677166,
      "duration": "14i"
    },
    {
      "time": "17472i",
      "midiNote": 51,
      "noteName": "D#3",
      "velocity": 0.905511811023622,
      "duration": "13i"
    },
    {
      "time": "17508i",
      "midiNote": 51,
      "noteName": "D#3",
      "velocity": 0.8818897637795275,
      "duration": "14i"
    },
    {
      "time": "17544i",
      "midiNote": 51,
      "noteName": "D#3",
      "velocity": 0.937007874015748,
      "duration": "14i"
    },
    {
      "time": "17568i",
      "midiNote": 51,
      "noteName": "D#3",
      "velocity": 0.905511811023622,
      "duration": "13i"
    },
    {
      "time": "17604i",
      "midiNote": 51,
      "noteName": "D#3",
      "velocity": 0.8818897637795275,
      "duration": "14i"
    },
    {
      "time": "17640i",
      "midiNote": 51,
      "noteName": "D#3",
      "velocity": 0.937007874015748,
      "duration": "14i"
    },
    {
      "time": "17664i",
      "midiNote": 51,
      "noteName": "D#3",
      "velocity": 0.905511811023622,
      "duration": "13i"
    },
    {
      "time": "17700i",
      "midiNote": 51,
      "noteName": "D#3",
      "velocity": 0.8818897637795275,
      "duration": "14i"
    },
    {
      "time": "17736i",
      "midiNote": 51,
      "noteName": "D#3",
      "velocity": 0.937007874015748,
      "duration": "14i"
    },
    {
      "time": "17760i",
      "midiNote": 51,
      "noteName": "D#3",
      "velocity": 0.905511811023622,
      "duration": "13i"
    },
    {
      "time": "17796i",
      "midiNote": 51,
      "noteName": "D#3",
      "velocity": 0.8818897637795275,
      "duration": "14i"
    },
    {
      "time": "17832i",
      "midiNote": 51,
      "noteName": "D#3",
      "velocity": 0.937007874015748,
      "duration": "14i"
    },
    {
      "time": "17856i",
      "midiNote": 51,
      "noteName": "D#3",
      "velocity": 0.905511811023622,
      "duration": "13i"
    },
    {
      "time": "17892i",
      "midiNote": 51,
      "noteName": "D#3",
      "velocity": 0.8818897637795275,
      "duration": "14i"
    },
    {
      "time": "17928i",
      "midiNote": 51,
      "noteName": "D#3",
      "velocity": 0.937007874015748,
      "duration": "14i"
    },
    {
      "time": "17952i",
      "midiNote": 51,
      "noteName": "D#3",
      "velocity": 0.905511811023622,
      "duration": "13i"
    },
    {
      "time": "17988i",
      "midiNote": 51,
      "noteName": "D#3",
      "velocity": 0.8818897637795275,
      "duration": "14i"
    },
    {
      "time": "18024i",
      "midiNote": 51,
      "noteName": "D#3",
      "velocity": 0.937007874015748,
      "duration": "14i"
    },
    {
      "time": "18048i",
      "midiNote": 51,
      "noteName": "D#3",
      "velocity": 0.905511811023622,
      "duration": "13i"
    },
    {
      "time": "18084i",
      "midiNote": 51,
      "noteName": "D#3",
      "velocity": 0.8818897637795275,
      "duration": "14i"
    },
    {
      "time": "18120i",
      "midiNote": 51,
      "noteName": "D#3",
      "velocity": 0.937007874015748,
      "duration": "14i"
    },
    {
      "time": "18144i",
      "midiNote": 51,
      "noteName": "D#3",
      "velocity": 0.905511811023622,
      "duration": "13i"
    },
    {
      "time": "18180i",
      "midiNote": 51,
      "noteName": "D#3",
      "velocity": 0.8818897637795275,
      "duration": "14i"
    },
    {
      "time": "18216i",
      "midiNote": 51,
      "noteName": "D#3",
      "velocity": 0.937007874015748,
      "duration": "14i"
    },
    {
      "time": "18240i",
      "midiNote": 51,
      "noteName": "D#3",
      "velocity": 0.905511811023622,
      "duration": "13i"
    },
    {
      "time": "18276i",
      "midiNote": 51,
      "noteName": "D#3",
      "velocity": 0.8818897637795275,
      "duration": "14i"
    },
    {
      "time": "18312i",
      "midiNote": 51,
      "noteName": "D#3",
      "velocity": 0.937007874015748,
      "duration": "14i"
    },
    {
      "time": "18336i",
      "midiNote": 51,
      "noteName": "D#3",
      "velocity": 0.905511811023622,
      "duration": "13i"
    },
    {
      "time": "18372i",
      "midiNote": 51,
      "noteName": "D#3",
      "velocity": 0.8818897637795275,
      "duration": "14i"
    },
    {
      "time": "18408i",
      "midiNote": 51,
      "noteName": "D#3",
      "velocity": 0.937007874015748,
      "duration": "14i"
    },
    {
      "time": "18432i",
      "midiNote": 51,
      "noteName": "D#3",
      "velocity": 0.905511811023622,
      "duration": "13i"
    },
    {
      "time": "18468i",
      "midiNote": 51,
      "noteName": "D#3",
      "velocity": 0.8818897637795275,
      "duration": "14i"
    },
    {
      "time": "18504i",
      "midiNote": 51,
      "noteName": "D#3",
      "velocity": 0.937007874015748,
      "duration": "14i"
    },
    {
      "time": "18528i",
      "midiNote": 51,
      "noteName": "D#3",
      "velocity": 0.905511811023622,
      "duration": "13i"
    },
    {
      "time": "18564i",
      "midiNote": 51,
      "noteName": "D#3",
      "velocity": 0.8818897637795275,
      "duration": "14i"
    },
    {
      "time": "18600i",
      "midiNote": 51,
      "noteName": "D#3",
      "velocity": 0.937007874015748,
      "duration": "14i"
    },
    {
      "time": "18624i",
      "midiNote": 51,
      "noteName": "D#3",
      "velocity": 0.905511811023622,
      "duration": "13i"
    },
    {
      "time": "18660i",
      "midiNote": 51,
      "noteName": "D#3",
      "velocity": 0.8818897637795275,
      "duration": "14i"
    },
    {
      "time": "18696i",
      "midiNote": 51,
      "noteName": "D#3",
      "velocity": 0.937007874015748,
      "duration": "14i"
    },
    {
      "time": "18720i",
      "midiNote": 51,
      "noteName": "D#3",
      "velocity": 0.905511811023622,
      "duration": "13i"
    },
    {
      "time": "18756i",
      "midiNote": 51,
      "noteName": "D#3",
      "velocity": 0.8818897637795275,
      "duration": "14i"
    },
    {
      "time": "18792i",
      "midiNote": 51,
      "noteName": "D#3",
      "velocity": 0.937007874015748,
      "duration": "14i"
    },
    {
      "time": "18816i",
      "midiNote": 51,
      "noteName": "D#3",
      "velocity": 0.905511811023622,
      "duration": "13i"
    },
    {
      "time": "18840i",
      "midiNote": 51,
      "noteName": "D#3",
      "velocity": 0.8818897637795275,
      "duration": "14i"
    },
    {
      "time": "18864i",
      "midiNote": 51,
      "noteName": "D#3",
      "velocity": 0.937007874015748,
      "duration": "14i"
    },
    {
      "time": "18888i",
      "midiNote": 51,
      "noteName": "D#3",
      "velocity": 0.937007874015748,
      "duration": "14i"
    },
    {
      "time": "18912i",
      "midiNote": 51,
      "noteName": "D#3",
      "velocity": 0.905511811023622,
      "duration": "13i"
    },
    {
      "time": "18936i",
      "midiNote": 51,
      "noteName": "D#3",
      "velocity": 0.8818897637795275,
      "duration": "14i"
    },
    {
      "time": "18960i",
      "midiNote": 51,
      "noteName": "D#3",
      "velocity": 0.937007874015748,
      "duration": "14i"
    },
    {
      "time": "19008i",
      "midiNote": 39,
      "noteName": "D#2",
      "velocity": 0.905511811023622,
      "duration": "13i"
    },
    {
      "time": "19044i",
      "midiNote": 39,
      "noteName": "D#2",
      "velocity": 0.8818897637795275,
      "duration": "14i"
    },
    {
      "time": "19080i",
      "midiNote": 39,
      "noteName": "D#2",
      "velocity": 0.937007874015748,
      "duration": "14i"
    },
    {
      "time": "19116i",
      "midiNote": 35,
      "noteName": "B1",
      "velocity": 0.889763779527559,
      "duration": "14i"
    },
    {
      "time": "19152i",
      "midiNote": 35,
      "noteName": "B1",
      "velocity": 0.9448818897637795,
      "duration": "13i"
    },
    {
      "time": "19176i",
      "midiNote": 35,
      "noteName": "B1",
      "velocity": 0.9291338582677166,
      "duration": "14i"
    },
    {
      "time": "19200i",
      "midiNote": 30,
      "noteName": "F#1",
      "velocity": 0.905511811023622,
      "duration": "13i"
    },
    {
      "time": "19236i",
      "midiNote": 30,
      "noteName": "F#1",
      "velocity": 0.8818897637795275,
      "duration": "14i"
    },
    {
      "time": "19272i",
      "midiNote": 30,
      "noteName": "F#1",
      "velocity": 0.937007874015748,
      "duration": "14i"
    },
    {
      "time": "19308i",
      "midiNote": 32,
      "noteName": "G#1",
      "velocity": 0.889763779527559,
      "duration": "14i"
    },
    {
      "time": "19344i",
      "midiNote": 32,
      "noteName": "G#1",
      "velocity": 0.9448818897637795,
      "duration": "14i"
    },
    {
      "time": "19368i",
      "midiNote": 32,
      "noteName": "G#1",
      "velocity": 0.9291338582677166,
      "duration": "14i"
    },
    {
      "time": "19392i",
      "midiNote": 39,
      "noteName": "D#2",
      "velocity": 0.905511811023622,
      "duration": "13i"
    },
    {
      "time": "19428i",
      "midiNote": 39,
      "noteName": "D#2",
      "velocity": 0.8818897637795275,
      "duration": "14i"
    },
    {
      "time": "19464i",
      "midiNote": 39,
      "noteName": "D#2",
      "velocity": 0.937007874015748,
      "duration": "14i"
    },
    {
      "time": "19500i",
      "midiNote": 35,
      "noteName": "B1",
      "velocity": 0.889763779527559,
      "duration": "14i"
    },
    {
      "time": "19536i",
      "midiNote": 35,
      "noteName": "B1",
      "velocity": 0.9448818897637795,
      "duration": "13i"
    },
    {
      "time": "19560i",
      "midiNote": 35,
      "noteName": "B1",
      "velocity": 0.9291338582677166,
      "duration": "14i"
    },
    {
      "time": "19584i",
      "midiNote": 30,
      "noteName": "F#1",
      "velocity": 0.905511811023622,
      "duration": "13i"
    },
    {
      "time": "19620i",
      "midiNote": 30,
      "noteName": "F#1",
      "velocity": 0.8818897637795275,
      "duration": "14i"
    },
    {
      "time": "19656i",
      "midiNote": 30,
      "noteName": "F#1",
      "velocity": 0.937007874015748,
      "duration": "14i"
    },
    {
      "time": "19692i",
      "midiNote": 32,
      "noteName": "G#1",
      "velocity": 0.889763779527559,
      "duration": "14i"
    },
    {
      "time": "19728i",
      "midiNote": 32,
      "noteName": "G#1",
      "velocity": 0.9448818897637795,
      "duration": "13i"
    },
    {
      "time": "19752i",
      "midiNote": 32,
      "noteName": "G#1",
      "velocity": 0.9291338582677166,
      "duration": "14i"
    },
    {
      "time": "19776i",
      "midiNote": 39,
      "noteName": "D#2",
      "velocity": 0.905511811023622,
      "duration": "13i"
    },
    {
      "time": "19812i",
      "midiNote": 39,
      "noteName": "D#2",
      "velocity": 0.8818897637795275,
      "duration": "14i"
    },
    {
      "time": "19848i",
      "midiNote": 39,
      "noteName": "D#2",
      "velocity": 0.937007874015748,
      "duration": "14i"
    },
    {
      "time": "19884i",
      "midiNote": 35,
      "noteName": "B1",
      "velocity": 0.889763779527559,
      "duration": "14i"
    },
    {
      "time": "19920i",
      "midiNote": 35,
      "noteName": "B1",
      "velocity": 0.9448818897637795,
      "duration": "14i"
    },
    {
      "time": "19944i",
      "midiNote": 35,
      "noteName": "B1",
      "velocity": 0.9291338582677166,
      "duration": "14i"
    },
    {
      "time": "19968i",
      "midiNote": 30,
      "noteName": "F#1",
      "velocity": 0.905511811023622,
      "duration": "13i"
    },
    {
      "time": "20004i",
      "midiNote": 30,
      "noteName": "F#1",
      "velocity": 0.8818897637795275,
      "duration": "14i"
    },
    {
      "time": "20040i",
      "midiNote": 30,
      "noteName": "F#1",
      "velocity": 0.937007874015748,
      "duration": "14i"
    },
    {
      "time": "20076i",
      "midiNote": 32,
      "noteName": "G#1",
      "velocity": 0.889763779527559,
      "duration": "14i"
    },
    {
      "time": "20112i",
      "midiNote": 32,
      "noteName": "G#1",
      "velocity": 0.9448818897637795,
      "duration": "13i"
    },
    {
      "time": "20136i",
      "midiNote": 32,
      "noteName": "G#1",
      "velocity": 0.9291338582677166,
      "duration": "14i"
    },
    {
      "time": "20160i",
      "midiNote": 39,
      "noteName": "D#2",
      "velocity": 0.905511811023622,
      "duration": "13i"
    },
    {
      "time": "20196i",
      "midiNote": 39,
      "noteName": "D#2",
      "velocity": 0.8818897637795275,
      "duration": "14i"
    },
    {
      "time": "20232i",
      "midiNote": 39,
      "noteName": "D#2",
      "velocity": 0.937007874015748,
      "duration": "14i"
    },
    {
      "time": "20268i",
      "midiNote": 35,
      "noteName": "B1",
      "velocity": 0.889763779527559,
      "duration": "14i"
    },
    {
      "time": "20304i",
      "midiNote": 35,
      "noteName": "B1",
      "velocity": 0.9448818897637795,
      "duration": "14i"
    },
    {
      "time": "20328i",
      "midiNote": 35,
      "noteName": "B1",
      "velocity": 0.9291338582677166,
      "duration": "14i"
    },
    {
      "time": "20352i",
      "midiNote": 30,
      "noteName": "F#1",
      "velocity": 0.905511811023622,
      "duration": "13i"
    },
    {
      "time": "20388i",
      "midiNote": 30,
      "noteName": "F#1",
      "velocity": 0.8818897637795275,
      "duration": "14i"
    },
    {
      "time": "20424i",
      "midiNote": 30,
      "noteName": "F#1",
      "velocity": 0.937007874015748,
      "duration": "14i"
    },
    {
      "time": "20460i",
      "midiNote": 32,
      "noteName": "G#1",
      "velocity": 0.889763779527559,
      "duration": "14i"
    },
    {
      "time": "20496i",
      "midiNote": 32,
      "noteName": "G#1",
      "velocity": 0.9448818897637795,
      "duration": "13i"
    },
    {
      "time": "20520i",
      "midiNote": 32,
      "noteName": "G#1",
      "velocity": 0.9291338582677166,
      "duration": "14i"
    },
    {
      "time": "20544i",
      "midiNote": 39,
      "noteName": "D#2",
      "velocity": 0.905511811023622,
      "duration": "13i"
    },
    {
      "time": "20580i",
      "midiNote": 39,
      "noteName": "D#2",
      "velocity": 0.8818897637795275,
      "duration": "14i"
    },
    {
      "time": "20616i",
      "midiNote": 39,
      "noteName": "D#2",
      "velocity": 0.937007874015748,
      "duration": "14i"
    },
    {
      "time": "20652i",
      "midiNote": 35,
      "noteName": "B1",
      "velocity": 0.889763779527559,
      "duration": "14i"
    },
    {
      "time": "20688i",
      "midiNote": 35,
      "noteName": "B1",
      "velocity": 0.9448818897637795,
      "duration": "14i"
    },
    {
      "time": "20712i",
      "midiNote": 35,
      "noteName": "B1",
      "velocity": 0.9291338582677166,
      "duration": "14i"
    },
    {
      "time": "20736i",
      "midiNote": 30,
      "noteName": "F#1",
      "velocity": 0.905511811023622,
      "duration": "13i"
    },
    {
      "time": "20772i",
      "midiNote": 30,
      "noteName": "F#1",
      "velocity": 0.8818897637795275,
      "duration": "14i"
    },
    {
      "time": "20808i",
      "midiNote": 30,
      "noteName": "F#1",
      "velocity": 0.937007874015748,
      "duration": "14i"
    },
    {
      "time": "20844i",
      "midiNote": 32,
      "noteName": "G#1",
      "velocity": 0.889763779527559,
      "duration": "14i"
    },
    {
      "time": "20880i",
      "midiNote": 32,
      "noteName": "G#1",
      "velocity": 0.9448818897637795,
      "duration": "13i"
    },
    {
      "time": "20904i",
      "midiNote": 32,
      "noteName": "G#1",
      "velocity": 0.9291338582677166,
      "duration": "14i"
    },
    {
      "time": "20928i",
      "midiNote": 39,
      "noteName": "D#2",
      "velocity": 0.905511811023622,
      "duration": "13i"
    },
    {
      "time": "20964i",
      "midiNote": 39,
      "noteName": "D#2",
      "velocity": 0.8818897637795275,
      "duration": "14i"
    },
    {
      "time": "21000i",
      "midiNote": 39,
      "noteName": "D#2",
      "velocity": 0.937007874015748,
      "duration": "14i"
    },
    {
      "time": "21036i",
      "midiNote": 35,
      "noteName": "B1",
      "velocity": 0.889763779527559,
      "duration": "14i"
    },
    {
      "time": "21072i",
      "midiNote": 35,
      "noteName": "B1",
      "velocity": 0.9448818897637795,
      "duration": "13i"
    },
    {
      "time": "21096i",
      "midiNote": 35,
      "noteName": "B1",
      "velocity": 0.9291338582677166,
      "duration": "14i"
    },
    {
      "time": "21120i",
      "midiNote": 30,
      "noteName": "F#1",
      "velocity": 0.905511811023622,
      "duration": "13i"
    },
    {
      "time": "21156i",
      "midiNote": 30,
      "noteName": "F#1",
      "velocity": 0.8818897637795275,
      "duration": "14i"
    },
    {
      "time": "21192i",
      "midiNote": 30,
      "noteName": "F#1",
      "velocity": 0.937007874015748,
      "duration": "14i"
    },
    {
      "time": "21228i",
      "midiNote": 32,
      "noteName": "G#1",
      "velocity": 0.889763779527559,
      "duration": "14i"
    },
    {
      "time": "21264i",
      "midiNote": 32,
      "noteName": "G#1",
      "velocity": 0.9448818897637795,
      "duration": "13i"
    },
    {
      "time": "21288i",
      "midiNote": 32,
      "noteName": "G#1",
      "velocity": 0.9291338582677166,
      "duration": "14i"
    },
    {
      "time": "21312i",
      "midiNote": 39,
      "noteName": "D#2",
      "velocity": 0.905511811023622,
      "duration": "13i"
    },
    {
      "time": "21348i",
      "midiNote": 39,
      "noteName": "D#2",
      "velocity": 0.8818897637795275,
      "duration": "14i"
    },
    {
      "time": "21384i",
      "midiNote": 39,
      "noteName": "D#2",
      "velocity": 0.937007874015748,
      "duration": "14i"
    },
    {
      "time": "21420i",
      "midiNote": 35,
      "noteName": "B1",
      "velocity": 0.889763779527559,
      "duration": "14i"
    },
    {
      "time": "21456i",
      "midiNote": 35,
      "noteName": "B1",
      "velocity": 0.9448818897637795,
      "duration": "13i"
    },
    {
      "time": "21480i",
      "midiNote": 35,
      "noteName": "B1",
      "velocity": 0.9291338582677166,
      "duration": "14i"
    },
    {
      "time": "21504i",
      "midiNote": 30,
      "noteName": "F#1",
      "velocity": 0.905511811023622,
      "duration": "13i"
    },
    {
      "time": "21540i",
      "midiNote": 30,
      "noteName": "F#1",
      "velocity": 0.8818897637795275,
      "duration": "14i"
    },
    {
      "time": "21576i",
      "midiNote": 30,
      "noteName": "F#1",
      "velocity": 0.937007874015748,
      "duration": "14i"
    },
    {
      "time": "21612i",
      "midiNote": 32,
      "noteName": "G#1",
      "velocity": 0.889763779527559,
      "duration": "14i"
    },
    {
      "time": "21648i",
      "midiNote": 32,
      "noteName": "G#1",
      "velocity": 0.9448818897637795,
      "duration": "14i"
    },
    {
      "time": "21672i",
      "midiNote": 32,
      "noteName": "G#1",
      "velocity": 0.9291338582677166,
      "duration": "14i"
    },
    {
      "time": "21696i",
      "midiNote": 39,
      "noteName": "D#2",
      "velocity": 0.905511811023622,
      "duration": "13i"
    },
    {
      "time": "21732i",
      "midiNote": 39,
      "noteName": "D#2",
      "velocity": 0.8818897637795275,
      "duration": "14i"
    },
    {
      "time": "21768i",
      "midiNote": 39,
      "noteName": "D#2",
      "velocity": 0.937007874015748,
      "duration": "14i"
    },
    {
      "time": "21804i",
      "midiNote": 35,
      "noteName": "B1",
      "velocity": 0.889763779527559,
      "duration": "14i"
    },
    {
      "time": "21840i",
      "midiNote": 35,
      "noteName": "B1",
      "velocity": 0.9448818897637795,
      "duration": "14i"
    },
    {
      "time": "21864i",
      "midiNote": 35,
      "noteName": "B1",
      "velocity": 0.9291338582677166,
      "duration": "14i"
    },
    {
      "time": "21888i",
      "midiNote": 30,
      "noteName": "F#1",
      "velocity": 0.905511811023622,
      "duration": "13i"
    },
    {
      "time": "21924i",
      "midiNote": 30,
      "noteName": "F#1",
      "velocity": 0.8818897637795275,
      "duration": "14i"
    },
    {
      "time": "21960i",
      "midiNote": 30,
      "noteName": "F#1",
      "velocity": 0.937007874015748,
      "duration": "14i"
    },
    {
      "time": "21996i",
      "midiNote": 32,
      "noteName": "G#1",
      "velocity": 0.889763779527559,
      "duration": "14i"
    },
    {
      "time": "22032i",
      "midiNote": 32,
      "noteName": "G#1",
      "velocity": 0.9448818897637795,
      "duration": "13i"
    },
    {
      "time": "22056i",
      "midiNote": 32,
      "noteName": "G#1",
      "velocity": 0.9291338582677166,
      "duration": "14i"
    }
  ]
}